<svg xmlns="http://www.w3.org/2000/svg" viewBox="0 0 64 64">
  <rect width="64" height="64" rx="12" fill="#2fb65d" />
  <path
    d="M33.8 9.2c1.5 0 2.7 1 3 2.4l2.5 11.3 11.3 2.5c1.4.3 2.4 1.5 2.4 3s-1 2.7-2.4 3l-11.3 2.5-2.5 11.3c-.3 1.4-1.5 2.4-3 2.4s-2.7-1-3-2.4l-2.5-11.3L17 31.4c-1.4-.3-2.4-1.5-2.4-3s1-2.7 2.4-3l11.3-2.5 2.5-11.3c.3-1.4 1.5-2.4 3-2.4Zm0 10.5-1.3 6c-.3 1.2-1.2 2.1-2.4 2.4l-6 1.3 6 1.3c1.2.3 2.1 1.2 2.4 2.4l1.3 6 1.3-6c.3-1.2 1.2-2.1 2.4-2.4l6-1.3-6-1.3c-1.2-.3-2.1-1.2-2.4-2.4l-1.3-6Z"
    fill="#001426"
  />
  <path
    d="M17.7 40.3c.9 0 1.7.6 1.9 1.5l.8 3.3 3.3.8c.9.2 1.5 1 1.5 1.9s-.6 1.7-1.5 1.9l-3.3.8-.8 3.3c-.2.9-1 1.5-1.9 1.5s-1.7-.6-1.9-1.5l-.8-3.3-3.3-.8c-.9-.2-1.5-1-1.5-1.9s.6-1.7 1.5-1.9l3.3-.8.8-3.3c.2-.9 1-1.5 1.9-1.5Z"
    fill="#001426"
  />
</svg>
